<svg width="150" height="150" viewBox="0 0 150 150" xmlns="http://www.w3.org/2000/svg">
  <defs>
    <linearGradient id="skinGradient" x1="0%" y1="0%" x2="100%" y2="100%">
      <stop offset="0%" style="stop-color:#F4C2A1;stop-opacity:1" />
      <stop offset="100%" style="stop-color:#E8A87C;stop-opacity:1" />
    </linearGradient>
    <linearGradient id="hairGradient" x1="0%" y1="0%" x2="100%" y2="100%">
      <stop offset="0%" style="stop-color:#8B4513;stop-opacity:1" />
      <stop offset="100%" style="stop-color:#654321;stop-opacity:1" />
    </linearGradient>
  </defs>
  
  <!-- Background circle -->
  <circle cx="75" cy="75" r="75" fill="#F8F9FA"/>
  
  <!-- Hair -->
  <path d="M75 25 C95 25, 115 35, 120 55 C125 75, 120 85, 115 90 L115 120 C115 125, 110 130, 105 130 L45 130 C40 130, 35 125, 35 120 L35 90 C30 85, 25 75, 30 55 C35 35, 55 25, 75 25 Z" fill="url(#hairGradient)"/>
  
  <!-- Face -->
  <ellipse cx="75" cy="80" rx="35" ry="40" fill="url(#skinGradient)"/>
  
  <!-- Eyes -->
  <ellipse cx="65" cy="75" rx="4" ry="3" fill="#2C3E50"/>
  <ellipse cx="85" cy="75" rx="4" ry="3" fill="#2C3E50"/>
  <circle cx="66" cy="74" r="1" fill="#FFFFFF"/>
  <circle cx="86" cy="74" r="1" fill="#FFFFFF"/>
  
  <!-- Eyebrows -->
  <path d="M58 68 Q65 66, 72 68" stroke="#654321" stroke-width="2" fill="none" stroke-linecap="round"/>
  <path d="M78 68 Q85 66, 92 68" stroke="#654321" stroke-width="2" fill="none" stroke-linecap="round"/>
  
  <!-- Nose -->
  <ellipse cx="75" cy="85" rx="2" ry="4" fill="#E8A87C"/>
  
  <!-- Mouth -->
  <path d="M68 95 Q75 100, 82 95" stroke="#C0392B" stroke-width="2" fill="none" stroke-linecap="round"/>
  
  <!-- Cheeks -->
  <circle cx="55" cy="88" r="6" fill="#F1A899" opacity="0.6"/>
  <circle cx="95" cy="88" r="6" fill="#F1A899" opacity="0.6"/>
</svg>